<mxfile host="app.diagrams.net" modified="2021-01-14T01:10:18.301Z" agent="5.0 (Windows NT 10.0; Win64; x64) AppleWebKit/537.36 (KHTML, like Gecko) Chrome/87.0.4280.141 Safari/537.36" etag="WS_y_wuyrk4m1yGFpdhp" version="14.1.2" type="github">
  <diagram id="rssGm8Ym4qmDCcKoFKop" name="Page-1">
    <mxGraphModel dx="1372" dy="633" grid="1" gridSize="10" guides="1" tooltips="1" connect="1" arrows="1" fold="1" page="1" pageScale="1" pageWidth="850" pageHeight="1100" math="0" shadow="0">
      <root>
        <mxCell id="0" />
        <mxCell id="1" parent="0" />
        <mxCell id="dfXIEDnl-jnrHKl0xlBr-74" value="" style="endArrow=none;html=1;" edge="1" parent="1">
          <mxGeometry width="50" height="50" relative="1" as="geometry">
            <mxPoint x="139" y="474" as="sourcePoint" />
            <mxPoint x="159" y="444" as="targetPoint" />
          </mxGeometry>
        </mxCell>
        <mxCell id="dfXIEDnl-jnrHKl0xlBr-1" value="SETOR" style="rounded=1;whiteSpace=wrap;html=1;" vertex="1" parent="1">
          <mxGeometry x="499" y="64" width="120" height="60" as="geometry" />
        </mxCell>
        <mxCell id="dfXIEDnl-jnrHKl0xlBr-2" value="QUADRAS" style="rounded=1;whiteSpace=wrap;html=1;" vertex="1" parent="1">
          <mxGeometry x="114" y="64" width="120" height="60" as="geometry" />
        </mxCell>
        <mxCell id="dfXIEDnl-jnrHKl0xlBr-4" value="EDIFICAÇÕES" style="rounded=1;whiteSpace=wrap;html=1;" vertex="1" parent="1">
          <mxGeometry x="499" y="284" width="120" height="60" as="geometry" />
        </mxCell>
        <mxCell id="dfXIEDnl-jnrHKl0xlBr-6" value="possui" style="rhombus;whiteSpace=wrap;html=1;" vertex="1" parent="1">
          <mxGeometry x="334" y="64" width="70" height="60" as="geometry" />
        </mxCell>
        <mxCell id="dfXIEDnl-jnrHKl0xlBr-7" value="possui" style="rhombus;whiteSpace=wrap;html=1;" vertex="1" parent="1">
          <mxGeometry x="139" y="174" width="70" height="60" as="geometry" />
        </mxCell>
        <mxCell id="dfXIEDnl-jnrHKl0xlBr-10" value="" style="endArrow=none;html=1;exitX=1;exitY=0.5;exitDx=0;exitDy=0;" edge="1" parent="1" source="dfXIEDnl-jnrHKl0xlBr-6">
          <mxGeometry width="50" height="50" relative="1" as="geometry">
            <mxPoint x="449" y="144" as="sourcePoint" />
            <mxPoint x="499" y="94" as="targetPoint" />
          </mxGeometry>
        </mxCell>
        <mxCell id="dfXIEDnl-jnrHKl0xlBr-13" value="" style="endArrow=none;html=1;exitX=1;exitY=0.5;exitDx=0;exitDy=0;" edge="1" parent="1">
          <mxGeometry width="50" height="50" relative="1" as="geometry">
            <mxPoint x="234" y="93.5" as="sourcePoint" />
            <mxPoint x="334" y="94" as="targetPoint" />
          </mxGeometry>
        </mxCell>
        <mxCell id="dfXIEDnl-jnrHKl0xlBr-15" value="" style="endArrow=none;html=1;" edge="1" parent="1">
          <mxGeometry width="50" height="50" relative="1" as="geometry">
            <mxPoint x="344" y="314" as="sourcePoint" />
            <mxPoint x="234" y="314" as="targetPoint" />
            <Array as="points">
              <mxPoint x="324" y="314" />
            </Array>
          </mxGeometry>
        </mxCell>
        <mxCell id="dfXIEDnl-jnrHKl0xlBr-16" value="" style="endArrow=none;html=1;entryX=0.5;entryY=1;entryDx=0;entryDy=0;exitX=0.5;exitY=0;exitDx=0;exitDy=0;" edge="1" parent="1" source="dfXIEDnl-jnrHKl0xlBr-3">
          <mxGeometry width="50" height="50" relative="1" as="geometry">
            <mxPoint x="174" y="274" as="sourcePoint" />
            <mxPoint x="173.5" y="234" as="targetPoint" />
          </mxGeometry>
        </mxCell>
        <mxCell id="dfXIEDnl-jnrHKl0xlBr-18" value="" style="endArrow=none;html=1;entryX=0.5;entryY=1;entryDx=0;entryDy=0;exitX=0.5;exitY=0;exitDx=0;exitDy=0;" edge="1" parent="1">
          <mxGeometry width="50" height="50" relative="1" as="geometry">
            <mxPoint x="174" y="174" as="sourcePoint" />
            <mxPoint x="173.5" y="124" as="targetPoint" />
          </mxGeometry>
        </mxCell>
        <mxCell id="dfXIEDnl-jnrHKl0xlBr-20" value="" style="endArrow=none;html=1;exitX=1;exitY=0.5;exitDx=0;exitDy=0;entryX=0;entryY=0.5;entryDx=0;entryDy=0;" edge="1" parent="1" source="dfXIEDnl-jnrHKl0xlBr-8" target="dfXIEDnl-jnrHKl0xlBr-4">
          <mxGeometry width="50" height="50" relative="1" as="geometry">
            <mxPoint x="474" y="374" as="sourcePoint" />
            <mxPoint x="524" y="324" as="targetPoint" />
          </mxGeometry>
        </mxCell>
        <mxCell id="dfXIEDnl-jnrHKl0xlBr-21" value="" style="endArrow=none;html=1;entryX=0.393;entryY=0.983;entryDx=0;entryDy=0;entryPerimeter=0;" edge="1" parent="1" target="dfXIEDnl-jnrHKl0xlBr-3">
          <mxGeometry width="50" height="50" relative="1" as="geometry">
            <mxPoint x="161" y="414" as="sourcePoint" />
            <mxPoint x="174" y="344" as="targetPoint" />
          </mxGeometry>
        </mxCell>
        <mxCell id="dfXIEDnl-jnrHKl0xlBr-22" value="" style="endArrow=none;html=1;" edge="1" parent="1">
          <mxGeometry width="50" height="50" relative="1" as="geometry">
            <mxPoint x="204" y="434" as="sourcePoint" />
            <mxPoint x="314" y="434" as="targetPoint" />
          </mxGeometry>
        </mxCell>
        <mxCell id="dfXIEDnl-jnrHKl0xlBr-23" value="&lt;u&gt;número&lt;/u&gt;" style="ellipse;whiteSpace=wrap;html=1;" vertex="1" parent="1">
          <mxGeometry x="94" y="24" width="60" height="30" as="geometry" />
        </mxCell>
        <mxCell id="dfXIEDnl-jnrHKl0xlBr-24" value="&lt;u&gt;número&lt;/u&gt;" style="ellipse;whiteSpace=wrap;html=1;" vertex="1" parent="1">
          <mxGeometry x="494" y="24" width="60" height="30" as="geometry" />
        </mxCell>
        <mxCell id="dfXIEDnl-jnrHKl0xlBr-25" value="nome" style="ellipse;whiteSpace=wrap;html=1;" vertex="1" parent="1">
          <mxGeometry x="559" y="24" width="60" height="30" as="geometry" />
        </mxCell>
        <mxCell id="dfXIEDnl-jnrHKl0xlBr-26" value="&lt;u&gt;número&lt;/u&gt;" style="ellipse;whiteSpace=wrap;html=1;" vertex="1" parent="1">
          <mxGeometry x="44" y="284" width="60" height="30" as="geometry" />
        </mxCell>
        <mxCell id="dfXIEDnl-jnrHKl0xlBr-5" value="PROPRIETÁRIO" style="rounded=1;whiteSpace=wrap;html=1;" vertex="1" parent="1">
          <mxGeometry x="309" y="404" width="120" height="60" as="geometry" />
        </mxCell>
        <mxCell id="dfXIEDnl-jnrHKl0xlBr-28" value="&lt;u&gt;id&lt;/u&gt;&lt;span style=&quot;color: rgba(0 , 0 , 0 , 0) ; font-family: monospace ; font-size: 0px&quot;&gt;%3CmxGraphModel%3E%3Croot%3E%3CmxCell%20id%3D%220%22%2F%3E%3CmxCell%20id%3D%221%22%20parent%3D%220%22%2F%3E%3CmxCell%20id%3D%222%22%20value%3D%22%26lt%3Bu%26gt%3Bn%C3%BAmero%26lt%3B%2Fu%26gt%3B%22%20style%3D%22ellipse%3BwhiteSpace%3Dwrap%3Bhtml%3D1%3B%22%20vertex%3D%221%22%20parent%3D%221%22%3E%3CmxGeometry%20x%3D%22-30%22%20y%3D%22260%22%20width%3D%2260%22%20height%3D%2230%22%20as%3D%22geometry%22%2F%3E%3C%2FmxCell%3E%3C%2Froot%3E%3C%2FmxGraphModel%3E&lt;/span&gt;" style="ellipse;whiteSpace=wrap;html=1;" vertex="1" parent="1">
          <mxGeometry x="499" y="244" width="60" height="30" as="geometry" />
        </mxCell>
        <mxCell id="dfXIEDnl-jnrHKl0xlBr-29" value="area" style="ellipse;whiteSpace=wrap;html=1;" vertex="1" parent="1">
          <mxGeometry x="574" y="244" width="60" height="30" as="geometry" />
        </mxCell>
        <mxCell id="dfXIEDnl-jnrHKl0xlBr-34" value="comercial" style="ellipse;whiteSpace=wrap;html=1;" vertex="1" parent="1">
          <mxGeometry x="684" y="364" width="80" height="30" as="geometry" />
        </mxCell>
        <mxCell id="dfXIEDnl-jnrHKl0xlBr-35" value="industrial" style="ellipse;whiteSpace=wrap;html=1;" vertex="1" parent="1">
          <mxGeometry x="734" y="324" width="80" height="30" as="geometry" />
        </mxCell>
        <mxCell id="dfXIEDnl-jnrHKl0xlBr-36" value="" style="endArrow=none;html=1;entryX=0;entryY=0.5;entryDx=0;entryDy=0;" edge="1" parent="1" target="dfXIEDnl-jnrHKl0xlBr-35">
          <mxGeometry width="50" height="50" relative="1" as="geometry">
            <mxPoint x="714" y="334" as="sourcePoint" />
            <mxPoint x="764" y="284" as="targetPoint" />
          </mxGeometry>
        </mxCell>
        <mxCell id="dfXIEDnl-jnrHKl0xlBr-37" value="" style="endArrow=none;html=1;" edge="1" parent="1">
          <mxGeometry width="50" height="50" relative="1" as="geometry">
            <mxPoint x="624" y="394" as="sourcePoint" />
            <mxPoint x="664" y="344" as="targetPoint" />
          </mxGeometry>
        </mxCell>
        <mxCell id="dfXIEDnl-jnrHKl0xlBr-33" value="residencial" style="ellipse;whiteSpace=wrap;html=1;" vertex="1" parent="1">
          <mxGeometry x="594" y="364" width="80" height="30" as="geometry" />
        </mxCell>
        <mxCell id="dfXIEDnl-jnrHKl0xlBr-38" value="" style="endArrow=none;html=1;" edge="1" parent="1" source="dfXIEDnl-jnrHKl0xlBr-34">
          <mxGeometry width="50" height="50" relative="1" as="geometry">
            <mxPoint x="649" y="384" as="sourcePoint" />
            <mxPoint x="699" y="334" as="targetPoint" />
          </mxGeometry>
        </mxCell>
        <mxCell id="dfXIEDnl-jnrHKl0xlBr-31" value="tipo" style="ellipse;whiteSpace=wrap;html=1;" vertex="1" parent="1">
          <mxGeometry x="634" y="314" width="80" height="30" as="geometry" />
        </mxCell>
        <mxCell id="dfXIEDnl-jnrHKl0xlBr-39" value="" style="endArrow=none;html=1;" edge="1" parent="1" target="dfXIEDnl-jnrHKl0xlBr-31">
          <mxGeometry width="50" height="50" relative="1" as="geometry">
            <mxPoint x="609" y="344" as="sourcePoint" />
            <mxPoint x="659" y="294" as="targetPoint" />
          </mxGeometry>
        </mxCell>
        <mxCell id="dfXIEDnl-jnrHKl0xlBr-40" value="" style="endArrow=none;html=1;entryX=0.5;entryY=1;entryDx=0;entryDy=0;" edge="1" parent="1" source="dfXIEDnl-jnrHKl0xlBr-4" target="dfXIEDnl-jnrHKl0xlBr-28">
          <mxGeometry width="50" height="50" relative="1" as="geometry">
            <mxPoint x="474" y="274" as="sourcePoint" />
            <mxPoint x="524" y="224" as="targetPoint" />
          </mxGeometry>
        </mxCell>
        <mxCell id="dfXIEDnl-jnrHKl0xlBr-41" value="" style="endArrow=none;html=1;" edge="1" parent="1">
          <mxGeometry width="50" height="50" relative="1" as="geometry">
            <mxPoint x="594" y="284" as="sourcePoint" />
            <mxPoint x="604" y="274" as="targetPoint" />
          </mxGeometry>
        </mxCell>
        <mxCell id="dfXIEDnl-jnrHKl0xlBr-42" value="" style="endArrow=none;html=1;exitX=1;exitY=0.25;exitDx=0;exitDy=0;" edge="1" parent="1" source="dfXIEDnl-jnrHKl0xlBr-4">
          <mxGeometry width="50" height="50" relative="1" as="geometry">
            <mxPoint x="584" y="339" as="sourcePoint" />
            <mxPoint x="634" y="289" as="targetPoint" />
          </mxGeometry>
        </mxCell>
        <mxCell id="dfXIEDnl-jnrHKl0xlBr-44" value="baixo" style="ellipse;whiteSpace=wrap;html=1;" vertex="1" parent="1">
          <mxGeometry x="654" y="204" width="80" height="30" as="geometry" />
        </mxCell>
        <mxCell id="dfXIEDnl-jnrHKl0xlBr-45" value="médio" style="ellipse;whiteSpace=wrap;html=1;" vertex="1" parent="1">
          <mxGeometry x="714" y="234" width="80" height="30" as="geometry" />
        </mxCell>
        <mxCell id="dfXIEDnl-jnrHKl0xlBr-46" value="alto" style="ellipse;whiteSpace=wrap;html=1;" vertex="1" parent="1">
          <mxGeometry x="724" y="274" width="80" height="30" as="geometry" />
        </mxCell>
        <mxCell id="dfXIEDnl-jnrHKl0xlBr-47" value="" style="endArrow=none;html=1;exitX=0.4;exitY=0.007;exitDx=0;exitDy=0;exitPerimeter=0;" edge="1" parent="1" source="dfXIEDnl-jnrHKl0xlBr-30">
          <mxGeometry width="50" height="50" relative="1" as="geometry">
            <mxPoint x="634" y="284" as="sourcePoint" />
            <mxPoint x="684" y="234" as="targetPoint" />
          </mxGeometry>
        </mxCell>
        <mxCell id="dfXIEDnl-jnrHKl0xlBr-48" value="" style="endArrow=none;html=1;" edge="1" parent="1" target="dfXIEDnl-jnrHKl0xlBr-45">
          <mxGeometry width="50" height="50" relative="1" as="geometry">
            <mxPoint x="684" y="284" as="sourcePoint" />
            <mxPoint x="694" y="244" as="targetPoint" />
          </mxGeometry>
        </mxCell>
        <mxCell id="dfXIEDnl-jnrHKl0xlBr-49" value="" style="endArrow=none;html=1;" edge="1" parent="1" target="dfXIEDnl-jnrHKl0xlBr-46">
          <mxGeometry width="50" height="50" relative="1" as="geometry">
            <mxPoint x="694" y="294" as="sourcePoint" />
            <mxPoint x="740" y="271" as="targetPoint" />
            <Array as="points">
              <mxPoint x="714" y="284" />
            </Array>
          </mxGeometry>
        </mxCell>
        <mxCell id="dfXIEDnl-jnrHKl0xlBr-30" value="acabamento" style="ellipse;whiteSpace=wrap;html=1;" vertex="1" parent="1">
          <mxGeometry x="634" y="274" width="80" height="30" as="geometry" />
        </mxCell>
        <mxCell id="dfXIEDnl-jnrHKl0xlBr-50" value="" style="endArrow=none;html=1;" edge="1" parent="1">
          <mxGeometry width="50" height="50" relative="1" as="geometry">
            <mxPoint x="544" y="374" as="sourcePoint" />
            <mxPoint x="544" y="344" as="targetPoint" />
          </mxGeometry>
        </mxCell>
        <mxCell id="dfXIEDnl-jnrHKl0xlBr-51" value="ano" style="ellipse;whiteSpace=wrap;html=1;" vertex="1" parent="1">
          <mxGeometry x="514" y="374" width="60" height="30" as="geometry" />
        </mxCell>
        <mxCell id="dfXIEDnl-jnrHKl0xlBr-52" value="" style="endArrow=none;html=1;" edge="1" parent="1" source="dfXIEDnl-jnrHKl0xlBr-26">
          <mxGeometry width="50" height="50" relative="1" as="geometry">
            <mxPoint x="64" y="344" as="sourcePoint" />
            <mxPoint x="114" y="294" as="targetPoint" />
          </mxGeometry>
        </mxCell>
        <mxCell id="dfXIEDnl-jnrHKl0xlBr-53" value="" style="endArrow=none;html=1;" edge="1" parent="1">
          <mxGeometry width="50" height="50" relative="1" as="geometry">
            <mxPoint x="84" y="344" as="sourcePoint" />
            <mxPoint x="144" y="334" as="targetPoint" />
          </mxGeometry>
        </mxCell>
        <mxCell id="dfXIEDnl-jnrHKl0xlBr-3" value="LOTES" style="rounded=1;whiteSpace=wrap;html=1;" vertex="1" parent="1">
          <mxGeometry x="114" y="284" width="120" height="60" as="geometry" />
        </mxCell>
        <mxCell id="dfXIEDnl-jnrHKl0xlBr-27" value="m²" style="ellipse;whiteSpace=wrap;html=1;" vertex="1" parent="1">
          <mxGeometry x="44" y="324" width="60" height="30" as="geometry" />
        </mxCell>
        <mxCell id="dfXIEDnl-jnrHKl0xlBr-54" value="" style="endArrow=none;html=1;" edge="1" parent="1" source="dfXIEDnl-jnrHKl0xlBr-2">
          <mxGeometry width="50" height="50" relative="1" as="geometry">
            <mxPoint x="84" y="104" as="sourcePoint" />
            <mxPoint x="134" y="54" as="targetPoint" />
          </mxGeometry>
        </mxCell>
        <mxCell id="dfXIEDnl-jnrHKl0xlBr-55" value="" style="endArrow=none;html=1;" edge="1" parent="1" source="dfXIEDnl-jnrHKl0xlBr-1">
          <mxGeometry width="50" height="50" relative="1" as="geometry">
            <mxPoint x="484" y="104" as="sourcePoint" />
            <mxPoint x="534" y="54" as="targetPoint" />
          </mxGeometry>
        </mxCell>
        <mxCell id="dfXIEDnl-jnrHKl0xlBr-56" value="" style="endArrow=none;html=1;" edge="1" parent="1" source="dfXIEDnl-jnrHKl0xlBr-1">
          <mxGeometry width="50" height="50" relative="1" as="geometry">
            <mxPoint x="544" y="104" as="sourcePoint" />
            <mxPoint x="594" y="54" as="targetPoint" />
          </mxGeometry>
        </mxCell>
        <mxCell id="dfXIEDnl-jnrHKl0xlBr-57" value="&lt;u&gt;cpf&lt;/u&gt;" style="ellipse;whiteSpace=wrap;html=1;" vertex="1" parent="1">
          <mxGeometry x="304" y="484" width="60" height="30" as="geometry" />
        </mxCell>
        <mxCell id="dfXIEDnl-jnrHKl0xlBr-58" value="nome" style="ellipse;whiteSpace=wrap;html=1;" vertex="1" parent="1">
          <mxGeometry x="374" y="484" width="60" height="30" as="geometry" />
        </mxCell>
        <mxCell id="dfXIEDnl-jnrHKl0xlBr-59" value="email" style="ellipse;whiteSpace=wrap;html=1;" vertex="1" parent="1">
          <mxGeometry x="439" y="454" width="60" height="30" as="geometry" />
        </mxCell>
        <mxCell id="dfXIEDnl-jnrHKl0xlBr-60" value="endereço" style="ellipse;whiteSpace=wrap;html=1;" vertex="1" parent="1">
          <mxGeometry x="439" y="419" width="75" height="30" as="geometry" />
        </mxCell>
        <mxCell id="dfXIEDnl-jnrHKl0xlBr-61" value="" style="endArrow=none;html=1;entryX=0;entryY=0.5;entryDx=0;entryDy=0;" edge="1" parent="1" source="dfXIEDnl-jnrHKl0xlBr-5" target="dfXIEDnl-jnrHKl0xlBr-60">
          <mxGeometry width="50" height="50" relative="1" as="geometry">
            <mxPoint x="474" y="474" as="sourcePoint" />
            <mxPoint x="524" y="424" as="targetPoint" />
          </mxGeometry>
        </mxCell>
        <mxCell id="dfXIEDnl-jnrHKl0xlBr-62" value="" style="endArrow=none;html=1;entryX=1;entryY=0.75;entryDx=0;entryDy=0;exitX=0;exitY=0;exitDx=0;exitDy=0;" edge="1" parent="1" source="dfXIEDnl-jnrHKl0xlBr-59" target="dfXIEDnl-jnrHKl0xlBr-5">
          <mxGeometry width="50" height="50" relative="1" as="geometry">
            <mxPoint x="474" y="474" as="sourcePoint" />
            <mxPoint x="524" y="424" as="targetPoint" />
          </mxGeometry>
        </mxCell>
        <mxCell id="dfXIEDnl-jnrHKl0xlBr-63" value="" style="endArrow=none;html=1;exitX=0.667;exitY=0;exitDx=0;exitDy=0;exitPerimeter=0;" edge="1" parent="1" source="dfXIEDnl-jnrHKl0xlBr-57">
          <mxGeometry width="50" height="50" relative="1" as="geometry">
            <mxPoint x="294" y="494" as="sourcePoint" />
            <mxPoint x="354" y="464" as="targetPoint" />
          </mxGeometry>
        </mxCell>
        <mxCell id="dfXIEDnl-jnrHKl0xlBr-64" value="" style="endArrow=none;html=1;" edge="1" parent="1">
          <mxGeometry width="50" height="50" relative="1" as="geometry">
            <mxPoint x="404" y="484" as="sourcePoint" />
            <mxPoint x="384" y="464" as="targetPoint" />
          </mxGeometry>
        </mxCell>
        <mxCell id="dfXIEDnl-jnrHKl0xlBr-65" value="" style="endArrow=none;html=1;" edge="1" parent="1">
          <mxGeometry width="50" height="50" relative="1" as="geometry">
            <mxPoint x="194" y="444" as="sourcePoint" />
            <mxPoint x="309" y="444" as="targetPoint" />
          </mxGeometry>
        </mxCell>
        <mxCell id="dfXIEDnl-jnrHKl0xlBr-69" value="" style="endArrow=none;html=1;exitX=0.643;exitY=0.167;exitDx=0;exitDy=0;exitPerimeter=0;" edge="1" parent="1" source="dfXIEDnl-jnrHKl0xlBr-9">
          <mxGeometry width="50" height="50" relative="1" as="geometry">
            <mxPoint x="134" y="394" as="sourcePoint" />
            <mxPoint x="184" y="344" as="targetPoint" />
          </mxGeometry>
        </mxCell>
        <mxCell id="dfXIEDnl-jnrHKl0xlBr-72" value="data" style="ellipse;whiteSpace=wrap;html=1;" vertex="1" parent="1">
          <mxGeometry x="104" y="464" width="60" height="30" as="geometry" />
        </mxCell>
        <mxCell id="dfXIEDnl-jnrHKl0xlBr-73" value="valor" style="ellipse;whiteSpace=wrap;html=1;" vertex="1" parent="1">
          <mxGeometry x="174" y="464" width="60" height="30" as="geometry" />
        </mxCell>
        <mxCell id="dfXIEDnl-jnrHKl0xlBr-75" value="" style="endArrow=none;html=1;exitX=0.5;exitY=0;exitDx=0;exitDy=0;" edge="1" parent="1" source="dfXIEDnl-jnrHKl0xlBr-73">
          <mxGeometry width="50" height="50" relative="1" as="geometry">
            <mxPoint x="149" y="484" as="sourcePoint" />
            <mxPoint x="169" y="454" as="targetPoint" />
            <Array as="points">
              <mxPoint x="184" y="454" />
            </Array>
          </mxGeometry>
        </mxCell>
        <mxCell id="dfXIEDnl-jnrHKl0xlBr-9" value="possui" style="rhombus;whiteSpace=wrap;html=1;" vertex="1" parent="1">
          <mxGeometry x="139" y="404" width="70" height="60" as="geometry" />
        </mxCell>
        <mxCell id="dfXIEDnl-jnrHKl0xlBr-76" value="" style="endArrow=none;html=1;" edge="1" parent="1">
          <mxGeometry width="50" height="50" relative="1" as="geometry">
            <mxPoint x="397" y="324" as="sourcePoint" />
            <mxPoint x="499" y="324" as="targetPoint" />
          </mxGeometry>
        </mxCell>
        <mxCell id="dfXIEDnl-jnrHKl0xlBr-8" value="possui" style="rhombus;whiteSpace=wrap;html=1;" vertex="1" parent="1">
          <mxGeometry x="344" y="284" width="70" height="60" as="geometry" />
        </mxCell>
        <mxCell id="dfXIEDnl-jnrHKl0xlBr-77" value="" style="endArrow=none;html=1;" edge="1" parent="1">
          <mxGeometry width="50" height="50" relative="1" as="geometry">
            <mxPoint x="234" y="102" as="sourcePoint" />
            <mxPoint x="344" y="102" as="targetPoint" />
          </mxGeometry>
        </mxCell>
        <mxCell id="dfXIEDnl-jnrHKl0xlBr-78" value="" style="endArrow=none;html=1;exitX=0.403;exitY=-0.03;exitDx=0;exitDy=0;exitPerimeter=0;" edge="1" parent="1" source="dfXIEDnl-jnrHKl0xlBr-3">
          <mxGeometry width="50" height="50" relative="1" as="geometry">
            <mxPoint x="114" y="274" as="sourcePoint" />
            <mxPoint x="164" y="224" as="targetPoint" />
          </mxGeometry>
        </mxCell>
        <mxCell id="dfXIEDnl-jnrHKl0xlBr-79" value="N" style="text;html=1;strokeColor=none;fillColor=none;align=center;verticalAlign=middle;whiteSpace=wrap;rounded=0;" vertex="1" parent="1">
          <mxGeometry x="264" y="74" width="40" height="20" as="geometry" />
        </mxCell>
        <mxCell id="dfXIEDnl-jnrHKl0xlBr-80" value="1" style="text;html=1;strokeColor=none;fillColor=none;align=center;verticalAlign=middle;whiteSpace=wrap;rounded=0;" vertex="1" parent="1">
          <mxGeometry x="429" y="74" width="40" height="20" as="geometry" />
        </mxCell>
        <mxCell id="dfXIEDnl-jnrHKl0xlBr-81" value="N" style="text;html=1;strokeColor=none;fillColor=none;align=center;verticalAlign=middle;whiteSpace=wrap;rounded=0;" vertex="1" parent="1">
          <mxGeometry x="184" y="244" width="40" height="20" as="geometry" />
        </mxCell>
        <mxCell id="dfXIEDnl-jnrHKl0xlBr-82" value="1" style="text;html=1;strokeColor=none;fillColor=none;align=center;verticalAlign=middle;whiteSpace=wrap;rounded=0;" vertex="1" parent="1">
          <mxGeometry x="184" y="134" width="40" height="20" as="geometry" />
        </mxCell>
        <mxCell id="dfXIEDnl-jnrHKl0xlBr-83" value="1" style="text;html=1;strokeColor=none;fillColor=none;align=center;verticalAlign=middle;whiteSpace=wrap;rounded=0;" vertex="1" parent="1">
          <mxGeometry x="429" y="279" width="40" height="20" as="geometry" />
        </mxCell>
        <mxCell id="dfXIEDnl-jnrHKl0xlBr-84" value="1" style="text;html=1;strokeColor=none;fillColor=none;align=center;verticalAlign=middle;whiteSpace=wrap;rounded=0;" vertex="1" parent="1">
          <mxGeometry x="264" y="279" width="40" height="20" as="geometry" />
        </mxCell>
        <mxCell id="dfXIEDnl-jnrHKl0xlBr-85" value="N" style="text;html=1;strokeColor=none;fillColor=none;align=center;verticalAlign=middle;whiteSpace=wrap;rounded=0;" vertex="1" parent="1">
          <mxGeometry x="104" y="374" width="40" height="20" as="geometry" />
        </mxCell>
        <mxCell id="dfXIEDnl-jnrHKl0xlBr-86" value="M" style="text;html=1;strokeColor=none;fillColor=none;align=center;verticalAlign=middle;whiteSpace=wrap;rounded=0;" vertex="1" parent="1">
          <mxGeometry x="244" y="444" width="40" height="20" as="geometry" />
        </mxCell>
      </root>
    </mxGraphModel>
  </diagram>
</mxfile>
